<svg xmlns="http://www.w3.org/2000/svg" viewBox="2100 43 7854 2128" fill="#5C1E21" fill-rule="evenodd" role="img" aria-label="Ayllus"><path d="M2270.92 610.16c43.93,-26.2 88.99,-49.24 135.09,-69.11 46.35,-19.98 94.09,-36.91 143.08,-50.8 48.94,-13.81 98.35,-24.2 148.29,-31.12 50.13,-6.96 100.51,-10.43 151.21,-10.43 48.96,0 96.04,3.1 141.11,9.31 44.99,6.2 87.7,15.5 127.99,27.9 40.7,12.49 78.31,27.45 112.85,44.89 34.79,17.56 66.7,37.74 95.78,60.53 29.29,22.96 55.31,48.4 77.94,76.31 22.59,27.85 41.81,58.13 57.56,90.79 15.85,32.91 27.74,67.61 35.62,104.07 7.88,36.44 11.82,74.64 11.82,114.57l0 556.35c0,38.73 -11.11,68.37 -33.4,88.92 -21.75,20.05 -53.05,30.09 -93.91,30.09l-88.11 0 0 -234c-22.91,27.92 -47.99,53.89 -75.24,77.88 -43.86,38.62 -93.4,72.13 -148.6,100.5 -55.17,28.37 -112.83,49.63 -172.94,63.79 -60.11,14.15 -122.64,21.23 -187.56,21.23 -80.07,0 -155.78,-9.31 -227.08,-27.91 -35.66,-9.3 -68.96,-20.14 -99.87,-32.5 -31.05,-12.42 -59.93,-26.48 -86.58,-42.15 -26.86,-15.8 -50.91,-33.13 -72.1,-51.95 -21.46,-19.05 -40.01,-39.6 -55.61,-61.6 -15.91,-22.44 -27.9,-45.77 -35.97,-69.96 -8.14,-24.43 -12.22,-49.4 -12.22,-74.93 0,-38.76 6.46,-74.83 19.35,-108.19 12.9,-33.37 32.19,-63.73 57.85,-91.01 49.4,-52.54 110.1,-95.25 182.07,-128.11 35.71,-16.29 72.29,-30.31 109.7,-42.01 37.41,-11.7 76.05,-21.23 115.91,-28.58 39.46,-7.28 76.49,-12.74 111.09,-16.37 35.18,-3.69 67.69,-5.54 97.49,-5.54 42.7,0 85.88,2.32 129.53,6.96 43.26,4.59 86.76,11.49 130.46,20.69 44.04,9.27 86.87,20.78 128.46,34.51 31.05,10.25 61.67,21.83 91.86,34.73l0 -20.84c0,-65.86 -9.86,-123.71 -29.56,-173.51 -19.46,-49.18 -48.59,-90.71 -87.34,-124.53 -39.13,-34.15 -86.99,-59.82 -143.53,-77 -57.32,-17.41 -123.83,-26.11 -199.52,-26.11 -45.12,0 -90.47,3.31 -136.03,9.92 -45.63,6.62 -91.79,16.6 -138.46,29.94 -46.8,13.37 -92.32,29.45 -136.54,48.24 -44.41,18.88 -87.73,40.54 -129.91,64.96l-32.65 18.92 0 -131.4 10.62 -6.34zm1022.92 513.93c-28.78,-14.43 -59.25,-27.5 -91.36,-39.22 -36.71,-13.39 -75.29,-24.95 -115.69,-34.68l-0.01 0.06c-40.67,-9.61 -81.69,-16.83 -123.05,-21.63 -41.25,-4.78 -83.03,-7.18 -125.32,-7.18 -48.55,0 -102.35,5.17 -161.35,15.49 -29.64,5.19 -58.1,11.94 -85.37,20.29 -27.47,8.41 -54.18,18.54 -80.11,30.4l-0.08 0.09c-25.4,11.45 -48.73,24.85 -69.97,40.24 -21.07,15.27 -40.15,32.58 -57.2,51.95l-0.09 0.08c-16.19,18.21 -28.34,38.87 -36.43,61.86 -8.22,23.29 -12.32,49.29 -12.32,77.86 0,36.99 8.32,69.61 24.95,97.77 16.8,28.46 42.27,52.88 76.37,73.2 35.21,21.16 77.23,37.06 126.04,47.73 49.51,10.83 105.94,16.22 169.27,16.22l0 0.08c55.39,-0.74 109.46,-7.97 162.19,-21.7 52.71,-13.72 104.15,-34.02 154.32,-60.93l0.08 0c50.04,-26.67 95.78,-58.79 137.2,-96.31 39.93,-36.18 75.91,-77.44 107.93,-123.71l0 -127.96z"></path><path d="M6393.37 154.29l0 1416.35c0,38.47 -10.51,67.97 -31.51,88.49 -20.81,20.34 -50.74,30.52 -89.77,30.52l-94.13 0 0 -1626.65 122.41 0 1.38 0.17c32.9,4.02 55.32,14.51 70.05,30.12 15.53,16.44 21.57,37.11 21.57,61zm3540.34 1190.19c0,28.5 -4.11,55.92 -12.33,82.22 -8.17,26.16 -20.45,51.12 -36.82,74.84 -16.07,23.33 -35.55,45.03 -58.41,65.07 -22.6,19.83 -48.49,38.02 -77.63,54.56 -28.82,16.36 -60.32,30.89 -94.46,43.57 -33.94,12.6 -70.42,23.35 -109.38,32.23 -38.97,8.87 -80.07,15.52 -123.28,19.94 -43.49,4.44 -88.81,6.67 -135.91,6.67 -100.25,0 -191.88,-9.04 -274.86,-27.09 -83.46,-18.16 -158.18,-45.48 -224.11,-81.94 -66.48,-36.76 -121.53,-81.26 -165.09,-133.44 -43.76,-52.46 -75.88,-112.5 -96.32,-180.1l-8.48 -28.06 73.38 0c23.04,0 36.39,1.13 48.93,8.96 12.52,7.83 19.33,19.36 29.32,40.14 20.29,42.19 46.52,78.45 79.46,110.2 33.13,31.94 73.31,59.45 121.32,83.94 53.8,27.45 112.94,47.85 177.37,61.17 65.09,13.46 135.69,19.82 211.77,19.09l0.17 -0.09c27.94,0 55.87,-1.64 83.74,-4.92 27.99,-3.29 56.12,-8.24 84.34,-14.83 28.13,-6.58 54.81,-14.52 79.99,-23.84 25.07,-9.26 48.65,-19.87 70.7,-31.8 43.54,-23.55 78.78,-51.27 105.66,-83.1 12.66,-14.99 21.95,-30.59 27.83,-46.79 5.83,-16.04 8.42,-32.84 7.78,-50.37 -0.63,-17.53 -4.53,-32.72 -11.7,-45.54 -7.04,-12.58 -17.47,-23.18 -31.25,-31.76 -15.74,-9.78 -33.8,-18.37 -54.16,-25.74 -20.64,-7.48 -43.89,-13.77 -69.7,-18.86 -26.39,-5.2 -54.39,-9.36 -83.98,-12.46 -30.25,-3.17 -62.16,-5.32 -95.72,-6.42 -35.06,-1.16 -69.79,-2.48 -104.15,-3.96 -35.41,-1.54 -70.59,-3.23 -105.47,-5.09 -35.71,-1.89 -71.02,-4.57 -105.91,-7.99 -35.17,-3.46 -69.52,-7.64 -102.98,-12.53 -34.51,-5.04 -67.12,-11.71 -97.82,-20.01 -30.88,-8.36 -60.03,-18.41 -87.43,-30.15 -28.06,-12.03 -53.47,-26.7 -76.19,-43.99 -22.82,-17.36 -42.94,-37.38 -60.35,-60.05 -17.81,-23.21 -31.16,-49.88 -40.03,-80 -8.72,-29.62 -13.09,-62.4 -13.09,-98.29 0,-27.84 4.01,-54.43 12.04,-79.76 8.01,-25.25 20.06,-49.23 36.14,-71.9 15.73,-22.19 34.64,-42.73 56.72,-61.59 21.9,-18.72 46.88,-35.79 74.89,-51.17 27.71,-15.23 58.42,-28.72 92.09,-40.46 33.36,-11.64 69.53,-21.51 108.45,-29.6 38.76,-8.05 79.61,-14.11 122.52,-18.15 43.21,-4.07 87.91,-6.11 134.06,-6.11 91.14,0 173.78,7.99 247.91,23.97 74.62,16.09 140.65,40.35 198.08,72.78 58.12,32.82 105.13,72.91 141,120.27 36.03,47.58 60.81,102.35 74.3,164.27l5.75 26.36 -81.68 0c-47.19,0 -55.99,-24.58 -68.54,-59.65 -2.38,-6.67 -4.95,-13.84 -7.58,-20.04 -15,-35.34 -31.57,-59.34 -52.81,-78.88 -21.83,-20.08 -49.38,-36.3 -85.46,-55.43 -41.61,-22.07 -89.9,-38.64 -144.82,-49.69 -55.41,-11.16 -117.98,-16.74 -187.7,-16.74 -34.56,0 -67.28,1.46 -98.12,4.35 -31.16,2.93 -61.09,7.35 -89.77,13.23 -28.73,5.89 -55.44,12.77 -80.06,20.61 -24.29,7.73 -46.85,16.54 -67.67,26.4 -20.38,9.66 -38.39,20.1 -53.99,31.31 -15.36,11.05 -28.54,22.93 -39.51,35.62 -10.37,11.99 -18.16,24.54 -23.32,37.61 -5.01,12.68 -7.51,25.95 -7.51,39.78 0,20.39 3.4,38.18 10.2,53.35 6.65,14.86 16.7,27.61 30.09,38.2 14.68,11.61 31.96,21.78 51.79,30.47 20.26,8.88 43.09,16.2 68.45,21.91 25.67,5.78 53.52,10.55 83.54,14.27 30.28,3.76 61.86,6.38 94.69,7.83 34.61,1.54 68.98,3.14 103.28,4.81 35.6,1.73 70.94,3.52 106.09,5.37 35.72,1.87 71.43,4.46 107.1,7.71 35.47,3.24 70.46,7.14 104.92,11.68 35.21,4.64 68.51,11.04 99.89,19.17 31.48,8.16 61.14,18.12 88.92,29.86 28.55,12.06 54.24,26.71 77.05,43.91 23.02,17.36 43.27,37.42 60.7,60.14 17.81,23.18 31.16,50.08 40.04,80.64 8.73,30.04 13.09,63.34 13.09,99.9zm-1916.13 -709.77c0,-79.74 40.42,-119.39 121.27,-119.39l94.14 0 0 1174.33 -138.72 0c-68.8,0 -77.36,-17.44 -77.36,-70.87l0.37 -18.68c0.14,-6.3 0.3,-13.37 0.3,-26.68l0 -81.93c-16.21,21.34 -33.88,41.32 -53,59.93 -36.51,35.53 -78.28,66.04 -125.28,91.49 -46.89,25.4 -97.72,44.46 -152.44,57.16 -54.48,12.65 -112.64,18.98 -174.47,18.98 -52.3,0 -102.39,-3.67 -150.24,-11 -47.93,-7.34 -93.67,-18.4 -137.17,-33.16 -43.36,-14.71 -83.76,-32.5 -121.17,-53.35 -37.49,-20.89 -71.89,-44.84 -103.17,-71.81 -31.44,-27.13 -59.29,-56.92 -83.51,-89.35 -24.27,-32.47 -45.05,-67.77 -62.32,-105.85 -17.19,-37.91 -30.12,-77.99 -38.75,-120.21 -8.64,-42.18 -12.95,-86.13 -12.95,-131.83l0 -587.17 102.2 0c40.71,0 66.45,0.4 85.96,15.05 20.31,15.25 27.24,40.53 27.24,88.38l0 484.86c0,38.29 2.91,74.39 8.71,108.34 5.81,33.99 14.47,65.88 25.95,95.68l0.09 0.09c11.55,30.14 25.54,57.81 41.97,83.03 16.41,25.2 35.35,48.16 56.79,68.88 21.65,20.93 45.63,39.58 71.87,55.82 26.22,16.22 54.82,30.14 85.74,41.65 31,11.53 63.98,20.22 98.9,26.03 34.81,5.8 71.71,8.71 110.64,8.71 78.31,0 147.97,-10.95 208.96,-32.9 60.45,-21.74 112.77,-54.42 156.91,-98.02 44.08,-43.36 77.15,-94.62 99.2,-153.71 22.22,-59.57 33.34,-127.45 33.34,-203.6l0 -468.9zm-2238.43 -480.42l0 1416.35c0,38.46 -10.51,67.97 -31.51,88.49 -20.81,20.34 -50.75,30.52 -89.77,30.52l-94.13 0 0 -1626.65 122.42 0 1.37 0.17c32.89,4.02 55.31,14.51 70.05,30.12 15.53,16.44 21.57,37.11 21.57,61zm-1569.2 1996.73l-81.31 0 329.11 -483.02 -804.57 -1152.68 41.63 0c26.63,0 35.82,-0.1 45.08,-0.18 138.1,-1.25 173.13,-1.56 261.62,125.47l563.52 808.95c10.38,1.74 20.53,1.07 29.89,-2.44 10.75,-4.04 20.92,-12.02 29.73,-24.6 130.01,-185.75 252.32,-366.5 377.27,-551.18 61.24,-90.5 123.19,-182.05 192.01,-282.87 4.07,-5.97 7.7,-11.61 11.06,-16.85 22.9,-35.61 36.19,-56.3 87.85,-56.3l105.38 0 -1070.13 1569.52c-18.94,27.78 -30.35,43.51 -47.56,53.67 -17.63,10.42 -36.83,12.51 -70.58,12.51z"></path></svg>